<svg xmlns="http://www.w3.org/2000/svg" viewBox="0 0 14 11" width="100%" height="100%" shape-rendering="crispEdges">
  
  <g fill="#FBA6A8">
    <rect x="1" y="3" width="10" height="1"/>
    <rect x="1" y="4" width="1" height="1"/>
    <rect x="3" y="4" width="2" height="1"/>
    <rect x="6" y="4" width="4" height="1"/>
    <rect x="1" y="5" width="8" height="1"/>
    <rect x="5" y="6" width="3" height="1"/>
    <rect x="5" y="7" width="3" height="1"/>
    <rect x="5" y="8" width="2" height="1"/>
  </g>

  <g fill="#E78388">
    <rect x="2" y="0" width="1" height="1"/>
    <rect x="7" y="0" width="1" height="1"/>
    <rect x="2" y="1" width="1" height="1"/>
    <rect x="7" y="1" width="1" height="1"/>
    
    <rect x="2" y="2" width="9" height="1"/>
    
    <rect x="11" y="3" width="1" height="1"/>
    <rect x="10" y="4" width="2" height="1"/>
    <rect x="9" y="5" width="5" height="1"/>
    <rect x="8" y="6" width="4" height="1"/>
    <rect x="13" y="6" width="1" height="1"/>
    <rect x="8" y="7" width="4" height="1"/>
    <rect x="7" y="8" width="5" height="1"/>
    <rect x="2" y="9" width="10" height="1"/>
    
    <rect x="0" y="6" width="5" height="1"/>
    <rect x="0" y="7" width="1" height="1"/>
    <rect x="2" y="7" width="1" height="1"/>
    <rect x="4" y="7" width="1" height="1"/>
    <rect x="0" y="8" width="5" height="1"/>
    
    <rect x="3" y="10" width="1" height="1"/>
    <rect x="5" y="10" width="1" height="1"/>
    <rect x="9" y="10" width="1" height="1"/>
    <rect x="11" y="10" width="1" height="1"/>
  </g>

  <g fill="#D45F64">
    <rect x="1" y="7" width="1" height="1"/>
    <rect x="3" y="7" width="1" height="1"/>
  </g>

  <g fill="#000000">
    <rect x="2" y="4" width="1" height="1"/>
    <rect x="5" y="4" width="1" height="1"/>
  </g>

</svg>
